<svg xmlns="http://www.w3.org/2000/svg" height="294.7" version="1.0" width="729"><path d="M125.84 44.236c2.489-5.496 5.409-9.588 9.273-10.555-1.982-1.632-2.78-4.243-2.763-7.519-3.94 5.368-6.341 11.307-6.51 18.074" fill="#f0f0f0"/><path d="M125.84 44.236c2.489-5.496 5.409-9.588 9.273-10.555-1.982-1.632-2.78-4.243-2.763-7.519-3.94 5.368-6.341 11.307-6.51 18.074z" fill="none" stroke="#000" stroke-width="1.457"/><path d="M131.54 46.196c2.489-5.49 5.409-9.576 9.273-10.55-1.982-1.631-2.774-4.236-2.763-7.518-3.94 5.374-6.341 11.307-6.51 18.068" fill="#f0f0f0"/><path d="M131.54 46.196c2.489-5.49 5.409-9.576 9.273-10.55-1.982-1.631-2.774-4.236-2.763-7.518-3.94 5.374-6.341 11.307-6.51 18.068z" fill="none" stroke="#000" stroke-width="1.457"/><path d="M110.24 47.496c-6.032.18-10.922 1.3-13.306 4.494-.746-2.454-2.844-4.197-5.875-5.45 6.475-1.562 12.875-1.492 19.181.956" fill="#f0f0f0"/><path d="M110.24 47.496c-6.032.18-10.922 1.3-13.306 4.494-.746-2.454-2.844-4.197-5.875-5.45 6.475-1.562 12.875-1.492 19.181.956z" fill="none" stroke="#000" stroke-width="1.457"/><path d="M368.24 111.145c-4.103-11.423 8.393-19.198 15.602-22.637-21.85-23.4-.78-34.166 9.32-35.279-14.757-26.064 23.068-31.164 26.618-51.242-32.167 29.503-96.36 22.742-144.426 34.608-52.548 12.98-60.177 41.276-57.91 59.903 2.512 20.551 18.972 20.89 29.964 18.634 2.174-.455 16.202-9.471 6.615-20.93-3.398-4.062-15.853-7.577-19.933 4.948-14.524-4.097-3.777-36.001 19.303-27.282 29.771 11.243 18.867 47.524.997 64.222 33.723-7.985 80.127-16.96 113.85-24.945" fill="#f0f0f0"/><path d="M368.24 111.145c-4.103-11.423 8.393-19.198 15.602-22.637-21.85-23.4-.78-34.166 9.32-35.279-14.757-26.064 23.068-31.164 26.618-51.242-32.167 29.503-96.36 22.742-144.426 34.608-52.548 12.98-60.177 41.276-57.91 59.903 2.512 20.551 18.972 20.89 29.964 18.634 2.174-.455 16.202-9.471 6.615-20.93-3.398-4.062-15.853-7.577-19.933 4.948-14.524-4.097-3.777-36.001 19.303-27.282 29.771 11.243 18.867 47.524.997 64.222 33.723-7.985 80.127-16.96 113.85-24.945z" fill="none" stroke="#000" stroke-width="1.457"/><path d="M419.84 1.945c-16.634 53.469-129.785 26.402-167.715 60.574 8.206 1.44 15.416 3.543 20.632 11.312 30.167-16.197 80.471-9.564 120.465-20.638-29.287 18.19-84.015 10.45-113.815 26.624 5.03 5.146 2.984 8.37 2 17.304 34.497-15.194 71.658-11.756 102.496-8.65-34.166 1.33-62.998-1.59-102.497 17.97 1.556 8.631-3.188 15.847-6.574 24.98" fill="#f0f0f0" stroke="#000" stroke-width="1.457"/><path d="M368.04 194.135c-17.328 18.476-15.684 44.604 25.89 47.442l-20.633 18.971c-13.09-3.998-17.526.991-22.299 5.986-2.331-.775-5.846-2.051-7.437-.39-2.121-5.31-5.537-4.85-11.528-2.273-8.987-3.882-17.357 7.745-19.204 14.67 3.555 1.55 1.736.635 7.885 1.305 2.891 1.993 5.747.594 11.651 0 2.22 3.375 6.434 4.435 9.652 4.663h6.323c9.757 6.2 23.512-2.559 33.274-10.322 1.113 2.214 2.215 4.435 3.328 6.656 6.044-.665 9.588-3.328 11.645-5.986 2.331-.892 4.663-1.778 6.988-2.664 7.763-12.315 21.856-22.963 32.283-36.94-28.967 14.426-30.319-13.742-5.047-23.604 13.306-68.704-26.292-40.25-62.771-17.514" fill="#f0f0f0"/><path d="M368.04 194.135c-17.328 18.476-15.684 44.604 25.89 47.442l-20.633 18.971c-13.09-3.998-17.526.991-22.299 5.986-2.331-.775-5.846-2.051-7.437-.39-2.121-5.31-5.537-4.85-11.528-2.273-8.987-3.882-17.357 7.745-19.204 14.67 3.555 1.55 1.736.635 7.885 1.305 2.891 1.993 5.747.594 11.651 0 2.22 3.375 6.434 4.435 9.652 4.663h6.323c9.757 6.2 23.512-2.559 33.274-10.322 1.113 2.214 2.215 4.435 3.328 6.656 6.044-.665 9.588-3.328 11.645-5.986 2.331-.892 4.663-1.778 6.988-2.664 7.763-12.315 21.856-22.963 32.283-36.94-28.967 14.426-30.319-13.742-5.047-23.604 13.306-68.704-26.292-40.25-62.771-17.514z" fill="none" stroke="#000" stroke-width="1.457"/><path d="M146.04 21.785c-3.818-.01-9.383.992-17.535 2.826l11.976 19.303c2.664 11.32 7.654 20.802 7.986 33.945-4.622 17.432-23.85 24.74-39.266 5.99-7.14-10.205-3.229-27.993-8.515-35.12-7.944-10.708-18.08-6.762-18.838-3.085-1.556 5.182 11.46 2.04 10.154 11.412-1.376 9.868-2.477 19.053 1.054 33.77-1.754 6.837 1.299 24.952 14.814 31.625.22 1.9.25 3.7.112 5.385h.172c-.967 12.336 4.197 19.521 6.209 31.217-12.242-6.824-19.148-21.194-26.12-31.217h-.956v-.605c-2.287.623-4.577 1.248-6.868 1.877-8.987-13.318-3.655-26.963-2-40.105-.443-6.213.048-13.36-2.72-19.076-6.018.194-12.496-.675-18.63-.746a59.712 59.712 0 00-2.603.023c-5.327 1.778-4.826 9.203-.17 11.312-3.823-.554-12.087-.105-10.146-.326-4.237-1.72-11.76 8.75-4.33 12.31-13.312 1.551-14.64 6.103-9.984 14.642 12.204-.886 22.077 6.212 18.639 23.295-3.87.495-11.733 1.335-13.271-3.49-.921-2.897-6.021-.554-7.361 6.148 7.99 7.77 8.317 19.856 23.96 23.295.444-12.088 7.56-9.213 11.313-9.312 5.216 5.542 8.095 14.086.664 20.63 47.256 24.183 94.512 48.364 141.77 72.546 13.417 2.325 30.832 6.324 57.234-1.998.442 3.555.887 11.76 1.335 15.31-6.434-3.327-14.199 3.66-18.64 11.319-2.658-1.312-3.55-1.312-5.758-.764.07-4.074-5.683-6.073-7.653-7.012-2.89 1.772-4.335 2.67-7.22 4.442-2.221-1.33-4.436-2.664-6.657-3.993-2.29 0-4.966 2.967-5.992 3.993-2.762 2.762-5.139 7.063-8.158 11.324-1.16 3.986-2.448 11.016 1.369 15.516 2.326-4.313 4.08-5.508 8.09-5.87-.326 1.149.419 4.598 2.08 5.38 3.468-3.643 6.499-3.649 8.818-4.278-.11 1.818 2.086 3.79 3.916 4.541 2.43-3.34 5.986-4.08 8.37-5.613 2.168-3.596 5.468 2.4 10.125-.367 10.095.215 27.847-2.221 44.26-6.657 0-1.987 4.948-9.068 6.324-11.318 1.27-2.069-.31-6.445.664-7.646 1.282-1.585 3.211-2.95 3.992-5.66 1.014-3.497.728-2.18 1.334-8.649-2.885-4.441-9.732-8.026-8.654-13.312 6.434-1.113 14.203-6.55 19.303-13.316 9.762 0 21.85-7.647 31.28-17.969 8.767 2.442 20.855-1.108 31.282-8.65 5.094 1.702 18.516.071 25.272-4.889 3.252 3.054 22.012 9.739 27.963 7.996-.012 16.721 9.087 38.046 34.633 34.631 28.833-3.858 41.357 9.43 37.947 21.31-7.804.01-21.477 10.134-22.637 14.651-2.996-.996-8.084-1.042-10.87-.18-.53-3.228.479-4.46-2.226-5.818-2.646-1.317-8.83-.43-9.67 1.97-.915 2.641-1.73-3.198-7.209-3.14-10.31 7.501-16.634 18.16-15.48 30.48 3.06-2.162 8.137-3.023 8.137-3.023-.746 1.335.28 4.137 1.865 4.545 4.535-3.952 4.943-4.545 7.688-3.864-.606.921.496 3.725 1.888 3.778 3.486-4.739 8.06-2.868 9.983-4.022 4.12 1.451 7.49-.495 11.238-.746 9.89 5.368 33.885-3.708 38.623 2.662 3.112-9.32 9.548-10.659 12.66-19.984-5.997-14.652 1.503-29.403-3.334-51.94-15.311 31.722-52.932-21.345-18.982-27.302 34.352-6.032 93.475 62.782 185.47 11.318 36.905-20.644 39.51-86.31-14.314-91.574-32.126-3.141-72.702 24.975-109.55 39.627-48.853 15.288-48.406-14.263-41.29-27.97 9.909-19.089 33.81-14.25 31.905 1.562-.208 1.72-5.795-.1-7.195-1.06 1.157 7.725-.82 13.33-4.397 21.15 11.155-3.451 16.482-7.396 26.635-14.833-2.663-.886-5.49-2.938-8.154-3.824h.01c7.314-20.935-32.826-43.216-49-1.719-6.003 15.37-5.023 52.525 53.412 39.592 36.724-8.125 74.81-41.528 106.49-37.268 26.175 3.515 38.945 38.777 5.992 62.562-22.655 16.348-97.666 15.945-135.77-9.326-38.904-25.79-71.992-50.688-118.47-58.568-44.71-8.87-86.16-4.995-121.13 7.32-16.051 5.66-13.643-10.929-1.328-9.646-12.537-17.31-31.05 18.55-37.274 18.307-8.52-.338-11.3-9.535-.01-11.33-11.202-8.609-22.153 9.926-33.274 13.988-8.259 3.013-7.689-10.59 4.976-7.494-7.442-14.157-32.66 8.63-45.902 13.31-12.684 4.477-20.848-1.516-21.746-12.407h-.171c-.207-2.639-.688-5.508-1.547-8.713 6.578-.438 16.088-.558 22.414-3.889v-.277C176.942 104 171.749 90.092 175.94 72.878c-3.771-.665-5.72-1.014-9.49-1.672 1.847-7.058 9.204-14.426 1.33-26.625h-12.648c-.972-16.15.676-22.77-9.082-22.793zm403.06 96.236c-.025-.168-.044-.332-.072-.502-.392.052-.297.249.072.502zm-461.82-3.064c-.073.057-.138.116-.21.173.067.037.141.068.21.104v-.277zm103.12 12.15c-.168.236-.336.487-.504.728h.957v-.605c-.15-.042-.302-.082-.453-.123z" fill="#f0f0f0"/><path d="M146.04 21.785c-3.818-.01-9.383.992-17.535 2.826l11.976 19.303c2.664 11.32 7.654 20.802 7.986 33.945-4.622 17.432-23.85 24.74-39.266 5.99-7.14-10.205-3.229-27.993-8.515-35.12-7.944-10.708-18.08-6.762-18.838-3.085-1.556 5.182 11.46 2.04 10.154 11.412-1.376 9.868-2.477 19.053 1.054 33.77-1.754 6.837 1.299 24.952 14.814 31.625.22 1.9.25 3.7.112 5.385h.172c-.967 12.336 4.197 19.521 6.209 31.217-12.242-6.824-19.148-21.194-26.12-31.217h-.956v-.605c-2.287.623-4.577 1.248-6.868 1.877-8.987-13.318-3.655-26.963-2-40.105-.443-6.213.048-13.36-2.72-19.076-6.018.194-12.496-.675-18.63-.746a59.712 59.712 0 00-2.603.023c-5.327 1.778-4.826 9.203-.17 11.312-3.823-.554-12.087-.105-10.146-.326-4.237-1.72-11.76 8.75-4.33 12.31-13.312 1.551-14.64 6.103-9.984 14.642 12.204-.886 22.077 6.212 18.639 23.295-3.87.495-11.733 1.335-13.271-3.49-.921-2.897-6.021-.554-7.361 6.148 7.99 7.77 8.317 19.856 23.96 23.295.444-12.088 7.56-9.213 11.313-9.312 5.216 5.542 8.095 14.086.664 20.63 47.256 24.183 94.512 48.364 141.77 72.546 13.417 2.325 30.832 6.324 57.234-1.998.442 3.555.887 11.76 1.335 15.31-6.434-3.327-14.199 3.66-18.64 11.319-2.658-1.312-3.55-1.312-5.758-.764.07-4.074-5.683-6.073-7.653-7.012-2.89 1.772-4.335 2.67-7.22 4.442-2.221-1.33-4.436-2.664-6.657-3.993-2.29 0-4.966 2.967-5.992 3.993-2.762 2.762-5.139 7.063-8.158 11.324-1.16 3.986-2.448 11.016 1.369 15.516 2.326-4.313 4.08-5.508 8.09-5.87-.326 1.149.419 4.598 2.08 5.38 3.468-3.643 6.499-3.649 8.818-4.278-.11 1.818 2.086 3.79 3.916 4.541 2.43-3.34 5.986-4.08 8.37-5.613 2.168-3.596 5.468 2.4 10.125-.367 10.095.215 27.847-2.221 44.26-6.657 0-1.987 4.948-9.068 6.324-11.318 1.27-2.069-.31-6.445.664-7.646 1.282-1.585 3.211-2.95 3.992-5.66 1.014-3.497.728-2.18 1.334-8.649-2.885-4.441-9.732-8.026-8.654-13.312 6.434-1.113 14.203-6.55 19.303-13.316 9.762 0 21.85-7.647 31.28-17.969 8.767 2.442 20.855-1.108 31.282-8.65 5.094 1.702 18.516.071 25.272-4.889 3.252 3.054 22.012 9.739 27.963 7.996-.012 16.721 9.087 38.046 34.633 34.631 28.833-3.858 41.357 9.43 37.947 21.31-7.804.01-21.477 10.134-22.637 14.651-2.996-.996-8.084-1.042-10.87-.18-.53-3.228.479-4.46-2.226-5.818-2.646-1.317-8.83-.43-9.67 1.97-.915 2.641-1.73-3.198-7.209-3.14-10.31 7.501-16.634 18.16-15.48 30.48 3.06-2.162 8.137-3.023 8.137-3.023-.746 1.335.28 4.137 1.865 4.545 4.535-3.952 4.943-4.545 7.688-3.864-.606.921.496 3.725 1.888 3.778 3.486-4.739 8.06-2.868 9.983-4.022 4.12 1.451 7.49-.495 11.238-.746 9.89 5.368 33.885-3.708 38.623 2.662 3.112-9.32 9.548-10.659 12.66-19.984-5.997-14.652 1.503-29.403-3.334-51.94-15.311 31.722-52.932-21.345-18.982-27.302 34.352-6.032 93.475 62.782 185.47 11.318 36.905-20.644 39.51-86.31-14.314-91.574-32.126-3.141-72.702 24.975-109.55 39.627-48.853 15.288-48.406-14.263-41.29-27.97 9.909-19.089 33.81-14.25 31.905 1.562-.208 1.72-5.795-.1-7.195-1.06 1.157 7.725-.82 13.33-4.397 21.15 11.155-3.451 16.482-7.396 26.635-14.833-2.663-.886-5.49-2.938-8.154-3.824h.01c7.314-20.935-32.826-43.216-49-1.719-6.003 15.37-5.023 52.525 53.412 39.592 36.724-8.125 74.81-41.528 106.49-37.268 26.175 3.515 38.945 38.777 5.992 62.562-22.655 16.348-97.666 15.945-135.77-9.326-38.904-25.79-71.992-50.688-118.47-58.568-44.71-8.87-86.16-4.995-121.13 7.32-16.051 5.66-13.643-10.929-1.328-9.646-12.537-17.31-31.05 18.55-37.274 18.307-8.52-.338-11.3-9.535-.01-11.33-11.202-8.609-22.153 9.926-33.274 13.988-8.259 3.013-7.689-10.59 4.976-7.494-7.442-14.157-32.66 8.63-45.902 13.31-12.684 4.477-20.848-1.516-21.746-12.407h-.171c-.207-2.639-.688-5.508-1.547-8.713 6.578-.438 16.088-.558 22.414-3.889v-.277C176.942 104 171.749 90.092 175.94 72.878c-3.771-.665-5.72-1.014-9.49-1.672 1.847-7.058 9.204-14.426 1.33-26.625h-12.648c-.972-16.15.676-22.77-9.082-22.793zm403.06 96.236c-.025-.168-.044-.332-.072-.502-.392.052-.297.249.072.502z" fill="none" stroke="#000" stroke-width="1.457"/><path d="M236.14 204.305c-33.274 20.183-40.6 46.364-47.92 76.537-15.748-17.968-38.158-42.599-81.194-21.967-3.993-33.944-23.96-42.593-49.92-45.92 39.493-17.527-41.486-39.709-55.24-68.547 72.545 49.692 140.223-2.029 188.697 9.645 13.055 3.148 27.026 16.88 15.625 32.278-4.248 5.735-15.27 6.02-17.129.169-4.488-14.11 7.693-12.397 9.704-8.195.245-10.013-7.967-9.46-10.543-9.279-7.635.56-14.42 9.32-6.656 23.966 6.213 9.757 19.484 21.786 38.6 7.315 15.038-11.371 8.213-26.618-4.656-39.93 22.853 5.327 37.05 21.961 20.632 43.928" fill="#f0f0f0"/><path d="M236.14 204.305c-33.274 20.183-40.6 46.364-47.92 76.537-15.748-17.968-38.158-42.599-81.194-21.967-3.993-33.944-23.96-42.593-49.92-45.92 39.493-17.527-41.486-39.709-55.24-68.547 72.545 49.692 140.223-2.029 188.697 9.645 13.055 3.148 27.026 16.88 15.625 32.278-4.248 5.735-15.27 6.02-17.129.169-4.488-14.11 7.693-12.397 9.704-8.195.245-10.013-7.967-9.46-10.543-9.279-7.635.56-14.42 9.32-6.656 23.966 6.213 9.757 19.484 21.786 38.6 7.315 15.038-11.371 8.213-26.618-4.656-39.93 22.853 5.327 37.05 21.961 20.632 43.928z" fill="none" stroke="#000" stroke-width="1.457"/><path d="M1.84 144.435c50.467 60.783 113.43 17.281 170.38 19.63-9.43 5.66-8.206 18.633-6.324 26.956-29.946 1.002-70.878 20.97-108.81 21.967 46.032 12.531 91.732-13.539 110.15-12.315.665 5.991 5.327 8.981 9.984 9.984-10.427 17.083-49.476 24.182-70.219 48.258 31.27-22.783 64.671-17.975 74.544-42.937 5.77 3.998 14.862 5.321 26.286 0-19.85 12.985-25.068 45.927-19.63 64.892m125.839-65.235c10.724-27.562 58.324-70.983 124.102-52.204-8.375 6.464-9.926 19.6-8.305 28.693" fill="none" stroke="#000" stroke-width="1.457"/><path d="M345.34 197.685c8.014-10.66 11.208-23.879 24.036-31.986m-1.336 28.436c14.524-12.647 16.634-26.828 29.456-34.94m-102.756 69.77c-5.805-14.326-2.704-28.646 11.138-42.978m-77.038 37.948c8.87 3.905 17.747 3.742 26.624-3.683 1.795 6.708 6.609 8.876 14.442 6.516m-8.966.337l1.87 11.155m23.73.125c1.982 2.833 3.97 5.665 5.95 8.498-6.515 7.926-5.1 13.026-7.652 19.542" fill="#f0f0f0" stroke="#000" stroke-width="1.457"/><path d="M263.94 143.505a5.668 5.668 0 015.665 5.665c0 3.13-2.535 5.66-5.665 5.66s-5.665-2.53-5.665-5.66a5.668 5.668 0 015.665-5.665" fill="#f0f0f0"/><path d="M263.94 143.505a5.668 5.668 0 015.665 5.665c0 3.13-2.535 5.66-5.665 5.66s-5.665-2.53-5.665-5.66a5.668 5.668 0 015.665-5.665z" fill="none" stroke="#000" stroke-width="1.457"/><path d="M292.54 136.975c3.13 0 5.665 2.541 5.665 5.67s-2.535 5.66-5.665 5.66-5.665-2.53-5.665-5.66 2.535-5.67 5.665-5.67" fill="#f0f0f0"/><path d="M292.54 136.975c3.13 0 5.665 2.541 5.665 5.67s-2.535 5.66-5.665 5.66-5.665-2.53-5.665-5.66 2.535-5.67 5.665-5.67z" fill="none" stroke="#000" stroke-width="1.457"/><path d="M316.64 129.325a5.663 5.663 0 110 11.324 5.663 5.663 0 110-11.324" fill="#f0f0f0"/><path d="M316.64 129.325a5.663 5.663 0 110 11.324 5.663 5.663 0 110-11.324z" fill="none" stroke="#000" stroke-width="1.457"/><path d="M306.44 148.025a4.808 4.808 0 014.814 4.814 4.812 4.812 0 01-4.814 4.814 4.816 4.816 0 01-4.814-4.814 4.812 4.812 0 014.814-4.814" fill="#f0f0f0"/><path d="M306.44 148.025a4.808 4.808 0 014.814 4.814 4.812 4.812 0 01-4.814 4.814 4.816 4.816 0 01-4.814-4.814 4.812 4.812 0 014.814-4.814z" fill="none" stroke="#000" stroke-width="1.457"/><path d="M284.34 156.235a4.82 4.82 0 014.814 4.814 4.812 4.812 0 01-4.814 4.814 4.808 4.808 0 01-4.814-4.814 4.816 4.816 0 014.814-4.814" fill="#f0f0f0"/><path d="M284.34 156.235a4.82 4.82 0 014.814 4.814 4.812 4.812 0 01-4.814 4.814 4.808 4.808 0 01-4.814-4.814 4.816 4.816 0 014.814-4.814z" fill="none" stroke="#000" stroke-width="1.457"/><path d="M336.44 138.935a4.812 4.812 0 110 9.623 4.812 4.812 0 110-9.623" fill="#f0f0f0"/><path d="M336.44 138.935a4.812 4.812 0 110 9.623 4.812 4.812 0 110-9.623z" fill="none" stroke="#000" stroke-width="1.457"/><path d="M341.54 126.485a3.683 3.683 0 11-3.683 3.678 3.683 3.683 0 013.683-3.678" fill="#f0f0f0"/><path d="M341.54 126.485a3.683 3.683 0 11-3.683 3.678 3.683 3.683 0 013.683-3.678z" fill="none" stroke="#000" stroke-width="1.457"/><path d="M356.84 133.855a3.685 3.685 0 013.683 3.69c0 2.022-1.649 3.677-3.683 3.677s-3.678-1.655-3.678-3.678a3.68 3.68 0 013.678-3.689" fill="#f0f0f0"/><path d="M356.84 133.855a3.685 3.685 0 013.683 3.69c0 2.022-1.649 3.677-3.683 3.677s-3.678-1.655-3.678-3.678a3.68 3.68 0 013.678-3.689z" fill="none" stroke="#000" stroke-width="1.457"/><path d="M369.84 124.245a3.685 3.685 0 013.683 3.69c0 2.022-1.649 3.677-3.683 3.677s-3.683-1.655-3.683-3.678a3.684 3.684 0 013.683-3.689" fill="#f0f0f0"/><path d="M369.84 124.245a3.685 3.685 0 013.683 3.69c0 2.022-1.649 3.677-3.683 3.677s-3.683-1.655-3.683-3.678a3.684 3.684 0 013.683-3.689z" fill="none" stroke="#000" stroke-width="1.457"/><path d="M325.34 159.635c2.664 0 4.814 2.156 4.814 4.814s-2.15 4.814-4.814 4.814a4.815 4.815 0 010-9.628" fill="#f0f0f0"/><path d="M325.34 159.635c2.664 0 4.814 2.156 4.814 4.814s-2.15 4.814-4.814 4.814a4.815 4.815 0 010-9.628z" fill="none" stroke="#000" stroke-width="1.457"/><path d="M351.74 150.265a4.82 4.82 0 014.814 4.814 4.812 4.812 0 01-4.814 4.814 4.808 4.808 0 01-4.814-4.814 4.816 4.816 0 014.814-4.814" fill="#f0f0f0"/><path d="M351.74 150.265a4.82 4.82 0 014.814 4.814 4.812 4.812 0 01-4.814 4.814 4.808 4.808 0 01-4.814-4.814 4.816 4.816 0 014.814-4.814z" fill="none" stroke="#000" stroke-width="1.457"/><path d="M274.14 182.295a3.964 3.964 0 110 7.927 3.964 3.964 0 010-7.927" fill="#f0f0f0"/><path d="M274.14 182.295a3.964 3.964 0 110 7.927 3.964 3.964 0 010-7.927z" fill="none" stroke="#000" stroke-width="1.457"/><path d="M302.74 170.965c2.191 0 3.963 1.778 3.963 3.97s-1.772 3.962-3.963 3.962c-2.186 0-3.963-1.771-3.963-3.963s1.777-3.969 3.963-3.969" fill="#f0f0f0"/><path d="M302.74 170.965c2.191 0 3.963 1.778 3.963 3.97s-1.772 3.962-3.963 3.962c-2.186 0-3.963-1.771-3.963-3.963s1.777-3.969 3.963-3.969z" fill="none" stroke="#000" stroke-width="1.457"/><path d="M375.74 142.055a3.969 3.969 0 013.97 3.963 3.965 3.965 0 01-3.97 3.963 3.964 3.964 0 010-7.926" fill="#f0f0f0"/><path d="M375.74 142.055a3.969 3.969 0 013.97 3.963 3.965 3.965 0 01-3.97 3.963 3.964 3.964 0 010-7.926z" fill="none" stroke="#000" stroke-width="1.457"/><path d="M385.44 130.865c1.964 0 3.555 1.585 3.555 3.55s-1.59 3.56-3.555 3.56c-1.958 0-3.55-1.596-3.55-3.56s1.592-3.55 3.55-3.55" fill="#f0f0f0"/><path d="M385.44 130.865c1.964 0 3.555 1.585 3.555 3.55s-1.59 3.56-3.555 3.56c-1.958 0-3.55-1.596-3.55-3.56s1.592-3.55 3.55-3.55z" fill="none" stroke="#000" stroke-width="1.457"/><path d="M396.44 135.995a3.548 3.548 0 013.55 3.55 3.55 3.55 0 11-7.1 0 3.552 3.552 0 013.55-3.55" fill="#f0f0f0"/><path d="M396.44 135.995a3.548 3.548 0 013.55 3.55 3.55 3.55 0 11-7.1 0 3.552 3.552 0 013.55-3.55z" fill="none" stroke="#000" stroke-width="1.457"/><path d="M394.34 123.875a3.105 3.105 0 013.106 3.106 3.102 3.102 0 01-3.106 3.107 3.105 3.105 0 110-6.213" fill="#f0f0f0"/><path d="M394.34 123.875a3.105 3.105 0 013.106 3.106 3.102 3.102 0 01-3.106 3.107 3.105 3.105 0 110-6.213z" fill="none" stroke="#000" stroke-width="1.457"/><path d="M170.14 122.945c-15.218 2.64-25.411-1.189-32.178-9.436m8.978 14.466c-15.113-3.188-27.702-10.234-27.539-28.611-1.241 9.232-3.899 16.581-9.675 19.764M54.24 80.515l12.24-.204v16.721m-26.54-4.497l17.164-.169v14.023M213.44 282.545l1.288-10.06 10.06-10.904m-.448 22.034l.67-11.324 8.626-7.799 6.015-.56m8.189 14.133c-3.882 1.748-3.456 2.32-7.915 3.153m-15.185-3.433l7.303 1.335m-17.803-2.495l8.498 2.325m-18.698-6.055l9.972 5.554m49.328-15.724c-6.067 2.996-11.697 6.172-17.899 2.29m265.399 12.17c-.03 4.039-4.616 5.648-11.29 6.137m14.99-21.897c1.883 3.485 1.107 6.97-2.32 10.456m-104.68-26.636l12.647 1.335c-6.656 8.095-17.31 10.2-23.96 19.297" fill="#f0f0f0" stroke="#000" stroke-width="1.457"/><path d="M332.34 279.835c-2.127 4.715-.303 8.818 3.328 12.647-.833-5.513 1.276-7.512 6.324-7.99-4.034-.163-8.72-2.425-9.652-4.657" fill="#f0f0f0"/><path d="M332.34 279.835c-2.127 4.715-.303 8.818 3.328 12.647-.833-5.513 1.276-7.512 6.324-7.99-4.034-.163-8.72-2.425-9.652-4.657z" fill="none" stroke="#000" stroke-width="1.457"/><path d="M320.64 279.835c.023 5.17 3.45 9.39 8.346 10.578-3.048-4.179-1.183-7.133 3.212-10.374-.438-.67-9.489 2.075-11.558-.204" fill="#f0f0f0"/><path d="M320.64 279.835c.023 5.17 3.45 9.39 8.346 10.578-3.048-4.179-1.183-7.133 3.212-10.374-.438-.67-9.489 2.075-11.558-.204z" fill="none" stroke="#000" stroke-width="1.457"/><path d="M312.84 278.485c.023 5.17.122 10.019 5.012 11.208-2.051-4.517.105-6.89 2.88-9.582-1.067-1.171-5.986.32-7.892-1.626" fill="#f0f0f0"/><path d="M312.84 278.485c.023 5.17.122 10.019 5.012 11.208-2.051-4.517.105-6.89 2.88-9.582-1.067-1.171-5.986.32-7.892-1.626z" fill="none" stroke="#000" stroke-width="1.457"/><path d="M320.64 279.835l1.632-6.318 9.687-9.652m.381 15.97l-.064-6.318 11.26-7.379m4.704 18.367l9.523-6.656m-6.223-11.064c4.045.268 6.703 3.864 10.84 2.535m19.46 4.875c3.182-4.039 4.616-2.32 11.29-2.815m-110.89 1.235c-1.894 2.576-3.625 5.81-8.084 6.638" fill="#f0f0f0" stroke="#000" stroke-width="1.457"/><path d="M24.84 114.125c1.41 5.863 3.514 10.415 7.128 12.1-2.256 1.23-3.526 3.642-4.132 6.865-2.856-6.009-4.103-12.292-2.996-18.965" fill="#f0f0f0"/><path d="M24.84 114.125c1.41 5.863 3.514 10.415 7.128 12.1-2.256 1.23-3.526 3.642-4.132 6.865-2.856-6.009-4.103-12.292-2.996-18.965z" fill="none" stroke="#000" stroke-width="1.457"/><path d="M12.94 106.155c5.525-2.425 12.047-3.544 15.573-1.679-.379-2.54-1.952-3.957-.583-6.964-6.516 1.363-10.35 3.724-14.99 8.643" fill="#f0f0f0"/><path d="M12.94 106.155c5.525-2.425 12.047-3.544 15.573-1.679-.379-2.54-1.952-3.957-.583-6.964-6.516 1.363-10.35 3.724-14.99 8.643z" fill="none" stroke="#000" stroke-width="1.457"/><path d="M22.44 93.145c5.52-2.425 12.047-3.538 15.573-1.679-1.253-2.482-1.952-3.957-.583-6.959-6.516 1.364-10.35 3.719-14.99 8.638" fill="#f0f0f0"/><path d="M22.44 93.145c5.52-2.425 12.047-3.538 15.573-1.679-1.253-2.482-1.952-3.957-.583-6.959-6.516 1.364-10.35 3.719-14.99 8.638z" fill="none" stroke="#000" stroke-width="1.457"/><path d="M36.44 80.515c5.525-2.425 12.047-3.544 15.573-1.684-1.253-2.483-1.952-3.952-.583-6.96-6.516 1.359-10.345 3.725-14.99 8.644" fill="#f0f0f0"/><path d="M36.44 80.515c5.525-2.425 12.047-3.544 15.573-1.684-1.253-2.483-1.952-3.952-.583-6.96-6.516 1.359-10.345 3.725-14.99 8.644z" fill="none" stroke="#000" stroke-width="1.457"/><path d="M442.44 283.005l.07-11.447 10.06-10.905m-.63 23.012l.804-12.292 8.632-7.804 6.009-.56m11.555 13.656c-3.643 2.495-10.596 5.95-15.054 6.772m-11.446-6.582l7.297 1.329m-17.297-3.009l9.902 2.331m-16.302-3.401l6.411 3.182m52.789-12.742c-5.222 1.58-10.077 3.45-15.422-1.877" fill="#f0f0f0" stroke="#000" stroke-width="1.457"/><path d="M212.64 157.115c16.96 13.76 23.797 30.354 35.774 48.765l4.663-48.584-40.437-.181z" fill="#f0f0f0"/><path d="M212.64 157.115c16.96 13.76 23.797 30.354 35.774 48.765l4.663-48.584-40.437-.181z" fill="none" stroke="#000" stroke-width="1.457"/><path d="M141.94 26.146l4.371 16.407c4.791-11.983 8.13-12.123-4.371-16.407" fill="#f0f0f0"/><path d="M154.04 49.926l4.371 21.512c4.791-15.719 8.13-15.888-4.371-21.512z" fill="none" stroke="#000" stroke-width="1.457"/><path d="M93.04 90.866c8.381 12.968 18.109 17.864 28.763 17.246" fill="#f0f0f0" stroke="#000" stroke-width="1.457"/><path d="M141.94 26.145l4.371 16.407c4.791-11.983 8.13-12.123-4.371-16.407z" fill="none" stroke="#000" stroke-width="1.457"/><path d="M154.04 49.925l4.371 21.512c4.791-15.719 8.13-15.888-4.371-21.512m14 49.241c7.151 12.315 14.92 16.086 22.958 15.975" fill="#f0f0f0" stroke="#000" stroke-width="1.457"/></svg>