<svg width="62" height="53" viewBox="0 0 62 53" fill="none" xmlns="http://www.w3.org/2000/svg">
<path d="M27.2689 26.5027L1.34391 8.44024C-0.447969 7.1918 -0.447969 5.17305 1.34391 3.93789L5.65203 0.936328C7.4439 -0.312109 10.3414 -0.312109 12.1142 0.936328L30.4905 13.7395L48.8667 0.936328C50.6586 -0.312109 53.5561 -0.312109 55.3289 0.936328L59.6751 3.92461C61.467 5.17305 61.467 7.1918 59.6751 8.42695L33.7501 26.4895C31.9583 27.7512 29.0608 27.7512 27.2689 26.5027ZM33.7501 52.0027L59.6751 33.9402C61.467 32.6918 61.467 30.673 59.6751 29.4379L55.367 26.4363C53.5751 25.1879 50.6776 25.1879 48.9048 26.4363L30.5095 39.2262L12.1333 26.423C10.3414 25.1746 7.4439 25.1746 5.67109 26.423L1.34391 29.4246C-0.447969 30.673 -0.447969 32.6918 1.34391 33.927L27.2689 51.9895C29.0608 53.2512 31.9583 53.2512 33.7501 52.0027Z" fill="#D9D9D9"/>
</svg>
